<svg xmlns="http://www.w3.org/2000/svg" viewBox="0 0 80.16 74.39">
  <defs>
    <style>
      .cls-1 {
        fill: none;
      }
    </style>
  </defs>
  <g>
    <g>
      <path class="cls-1" d="m10.05,6.11c-1.22.1-1.86.18-2.51.2Q.09,6.48.08,13.85c0,18.15.11,36.31-.08,54.46-.05,4.56,1.47,6.12,6.06,6.09,22.65-.17,45.3-.17,67.95,0,4.5.03,6.2-1.36,6.15-6.01-.2-17.65-.13-35.3-.06-52.96.04-10.19-.26-9.08-8.9-9.21-.29,0-.58-.28-.88-.42-.56-2.24-1.92-5.21-3.21-5.18-9.35.2-19.59-3.29-25.95,4.49-5.28-1.79-9.58-3.68-14.09-4.65-3.18-.69-6.64-.02-9.96-.16-4.19-.18-8.11-.21-7.06,5.82Z"/>
      <path d="m10.05,6.11C9.01.07,12.92.11,17.12.29c3.32.14,6.71.29,9.96.16C38.37,0,34.73-.46,41.16,5.1,47.53-2.68,57.76.81,67.11.61c1.3-.03,2.65,2.94,3.21,5.18.29.15.58.42.88.42,8.64.13,8.94-.98,8.9,9.21-.08,17.65-.14,35.31.06,52.96.05,4.65-1.64,6.04-6.15,6.01-22.65-.16-45.3-.17-67.95,0-4.59.03-6.11-1.53-6.06-6.09C.19,50.15.08,32,.08,13.85q0-7.37,7.46-7.54c.65-.02,1.3-.1,2.51-.2Zm27.01,53.55c0-14.37.09-29.35-.05-44.33-.04-4.87-3.25-8.47-7.84-8.85-4.24-.35-8.52-.07-12.72-.07v51.36c6.94.64,13.48,1.24,20.61,1.9Zm6.05.04c7.08-.68,13.9-1.33,20.56-1.97V6.35c-4.24,0-8.08-.17-11.89.04-5,.28-8.55,3.64-8.61,8.64-.17,15.14-.06,30.27-.06,44.67Zm-8.8,8.39c.14-.51.28-1.01.42-1.52-2.39-.75-4.74-1.91-7.19-2.15-3.8-.37-7.67-.33-11.48-.05-4.6.33-6.14-1.5-6.07-6.07.21-14.15.1-28.31.06-42.47-.01-3.51-.11-3.51-3.73-2.74v55h27.98ZM73.97,12.79c-4.25-1.47-3.9,1.16-3.9,3.54.01,14.15-.09,28.31.07,42.46.05,4.09-1.41,5.79-5.54,5.56-3.98-.22-8.02-.33-11.98.07-2.47.25-4.83,1.53-7.24,2.35.16.38.32.75.48,1.13h28.11V12.79Z"/>
    </g>
  </g>
</svg>
